# xmcd
#
# Track frame offsets:
#	150
#	11386
#	20760
#	34841
#	46176
#	59822
#	73545
#	84733
#	97453
#	108902
#	119852
#	133791
#	145763
#	158052
#	170500
#	183922
#
# Disc length: 2581 seconds
#
# Revision: 1
# Processed by: cddbd v1.5.1PL2 Copyright (c) Steve Scherf et al.
# Submitted via: audiograbber 1.83.01
#
DISCID=e80a1310
DTITLE=Diverse - Melodie Und Rhytmus
DYEAR=1900
DGENRE=
TTITLE0=Porto Rico
TTITLE1=Tanze Mit Mir In Den Morgen
TTITLE2=Die Straﬂe Am Abend
TTITLE3=I Love You
TTITLE4=Melancholie
TTITLE5=The Breeze And I
TTITLE6=Blues D'amour
TTITLE7=Dobs Boogie
TTITLE8=Mister Tumpet
TTITLE9=Candelight Waltz
TTITLE10=Non Ho I'era
TTITLE11=bitte einen cha-Cha
TTITLE12=Stardust
TTITLE13=The Wedding Samba
TTITLE14=Oh, Warum
TTITLE15=Lamberts Nachtlokal
EXTD=Schallplatte
EXTT0=
EXTT1=
EXTT2=
EXTT3=
EXTT4=
EXTT5=
EXTT6=
EXTT7=
EXTT8=
EXTT9=
EXTT10=
EXTT11=
EXTT12=
EXTT13=
EXTT14=
EXTT15=
PLAYORDER=
